<svg width="127" height="36" viewBox="0 0 127 36" fill="none" xmlns="http://www.w3.org/2000/svg">
<g opacity="0.6">
<path opacity="0.6" d="M58.3029 24.0069C58.5 24.0069 58.6702 24.0837 58.8136 24.237L60.2383 25.7932C59.4498 26.7765 58.4776 27.5297 57.3217 28.0529C56.1748 28.5762 54.795 28.8378 53.1821 28.8378C51.7395 28.8378 50.4403 28.5897 49.2844 28.0936C48.1375 27.5973 47.1563 26.9072 46.3409 26.0231C45.5255 25.1391 44.8983 24.0837 44.4593 22.8568C44.0292 21.6298 43.8141 20.2903 43.8141 18.8378C43.8141 17.3674 44.056 16.0232 44.5399 14.8054C45.0237 13.5785 45.7047 12.5231 46.5829 11.639C47.461 10.7549 48.5093 10.0693 49.7279 9.58211C50.9555 9.08596 52.3085 8.83789 53.7869 8.83789C55.2295 8.83789 56.4884 9.07242 57.5636 9.54155C58.6478 10.0016 59.5753 10.6151 60.3458 11.3818L59.1362 13.0733C59.0645 13.1815 58.9704 13.2763 58.854 13.3575C58.7464 13.4387 58.5941 13.4793 58.3969 13.4793C58.1909 13.4793 57.9803 13.3981 57.7653 13.2357C57.5502 13.0733 57.2769 12.8974 56.9454 12.7079C56.6139 12.5185 56.1927 12.3426 55.682 12.1802C55.1802 12.0178 54.5395 11.9366 53.76 11.9366C52.8461 11.9366 52.0038 12.099 51.2332 12.4238C50.4716 12.7395 49.8131 13.1951 49.2575 13.7905C48.7109 14.3859 48.2808 15.1121 47.9672 15.9691C47.6626 16.8171 47.5102 17.7733 47.5102 18.8378C47.5102 19.9384 47.6626 20.9172 47.9672 21.7742C48.2808 22.6312 48.7019 23.3529 49.2306 23.9393C49.7592 24.5257 50.382 24.9767 51.0988 25.2925C51.8156 25.5992 52.5862 25.7525 53.4106 25.7525C53.9034 25.7525 54.3469 25.7255 54.7411 25.6713C55.1444 25.6172 55.5118 25.5315 55.8432 25.4142C56.1838 25.2969 56.5019 25.1482 56.7976 24.9677C57.1022 24.7782 57.4024 24.5482 57.6981 24.2776C57.7877 24.1964 57.8817 24.1332 57.9803 24.0881C58.0789 24.034 58.1864 24.0069 58.3029 24.0069Z" fill="#30424F"/>
<path opacity="0.6" d="M73.0577 28.6211H71.5658C71.2522 28.6211 71.0058 28.576 70.8266 28.4858C70.6474 28.3866 70.513 28.1926 70.4234 27.9039L70.1277 26.9161C69.7783 27.2319 69.4333 27.5115 69.0928 27.755C68.7612 27.9896 68.4163 28.1881 68.0579 28.3505C67.6995 28.5129 67.3187 28.6346 66.9154 28.7158C66.5122 28.797 66.0642 28.8376 65.5714 28.8376C64.989 28.8376 64.4514 28.7609 63.9585 28.6075C63.4657 28.4452 63.0401 28.2062 62.6817 27.8903C62.3323 27.5746 62.059 27.1822 61.8619 26.7131C61.6647 26.244 61.5662 25.6982 61.5662 25.0758C61.5662 24.5525 61.7006 24.0384 61.9694 23.5331C62.2472 23.019 62.7041 22.5589 63.3403 22.1529C63.9765 21.738 64.8233 21.3951 65.8806 21.1245C66.9379 20.8539 68.2505 20.7005 69.8185 20.6645V19.8525C69.8185 18.9233 69.6215 18.2378 69.2272 17.7957C68.8419 17.3447 68.2774 17.1192 67.5337 17.1192C66.9961 17.1192 66.5481 17.1823 66.1897 17.3086C65.8313 17.4349 65.5177 17.5792 65.2489 17.7416C64.989 17.8949 64.747 18.0348 64.523 18.1611C64.299 18.2873 64.0526 18.3505 63.7838 18.3505C63.5598 18.3505 63.3672 18.2919 63.2059 18.1746C63.0446 18.0573 62.9147 17.913 62.8161 17.7416L62.2113 16.6726C63.7973 15.2111 65.7103 14.4805 67.9503 14.4805C68.7568 14.4805 69.4736 14.6158 70.1008 14.8864C70.737 15.148 71.2746 15.5179 71.7137 15.996C72.1527 16.4651 72.4842 17.0289 72.7082 17.6874C72.9413 18.346 73.0577 19.0677 73.0577 19.8525V28.6211ZM66.6063 26.5372C66.9468 26.5372 67.2604 26.5056 67.5471 26.4425C67.8339 26.3793 68.1027 26.2846 68.3536 26.1583C68.6135 26.0321 68.8599 25.8787 69.0928 25.6982C69.3347 25.5088 69.5767 25.2877 69.8185 25.0352V22.6942C68.8508 22.7393 68.04 22.825 67.3859 22.9513C66.7407 23.0686 66.221 23.222 65.8268 23.4114C65.4325 23.6008 65.1502 23.8219 64.9801 24.0744C64.8188 24.327 64.7381 24.6022 64.7381 24.8999C64.7381 25.4863 64.9084 25.9057 65.2489 26.1583C65.5983 26.4109 66.0508 26.5372 66.6063 26.5372Z" fill="#30424F"/>
<path opacity="0.6" d="M75.7844 28.6211V14.7375H77.7333C78.0738 14.7375 78.3113 14.8007 78.4457 14.927C78.5801 15.0533 78.6697 15.2698 78.7145 15.5765L78.9161 17.2545C79.4089 16.3974 79.9868 15.7208 80.6499 15.2247C81.313 14.7285 82.0564 14.4805 82.881 14.4805C83.5621 14.4805 84.1266 14.6383 84.5746 14.9541L84.1446 17.4574C84.1175 17.6198 84.0593 17.7371 83.9698 17.8093C83.8804 17.8724 83.759 17.9039 83.6064 17.9039C83.4726 17.9039 83.2888 17.8724 83.0558 17.8093C82.8228 17.7461 82.5134 17.7145 82.1286 17.7145C81.4386 17.7145 80.847 17.9085 80.3542 18.2964C79.8614 18.6753 79.4447 19.2346 79.1042 19.9744V28.6211H75.7844Z" fill="#30424F"/>
<path opacity="0.6" d="M95.9239 28.6213C95.494 28.6213 95.2117 28.4183 95.0771 28.0124L94.808 26.6727C94.5216 26.9975 94.2213 27.2906 93.9079 27.5523C93.5936 27.8139 93.2531 28.0394 92.8864 28.2289C92.5278 28.4183 92.1381 28.5626 91.7171 28.6619C91.3044 28.7702 90.8564 28.8243 90.3731 28.8243C89.6199 28.8243 88.9298 28.6664 88.303 28.3507C87.6761 28.0349 87.1338 27.5794 86.6767 26.984C86.2287 26.3795 85.8792 25.6353 85.6281 24.7512C85.3861 23.8672 85.2654 22.8568 85.2654 21.7201C85.2654 20.6917 85.4041 19.7355 85.6823 18.8514C85.9596 17.9673 86.3584 17.2005 86.8786 16.551C87.398 15.9015 88.0207 15.3963 88.7469 15.0355C89.4722 14.6655 90.2878 14.4807 91.1928 14.4807C91.9633 14.4807 92.6222 14.607 93.1686 14.8595C93.7151 15.1031 94.2033 15.4324 94.6332 15.8473V8.51318H97.953V28.6213H95.9239ZM91.5022 26.172C92.1914 26.172 92.7789 26.0277 93.2622 25.739C93.7463 25.4504 94.2033 25.0399 94.6332 24.5076V18.2831C94.2574 17.823 93.8447 17.4982 93.3967 17.3088C92.9577 17.1194 92.4827 17.0246 91.9723 17.0246C91.4702 17.0246 91.0131 17.1194 90.6012 17.3088C90.1984 17.4982 89.8529 17.7869 89.5666 18.1748C89.2884 18.5537 89.0734 19.0408 88.9208 19.6362C88.769 20.2226 88.6927 20.9172 88.6927 21.7201C88.6927 22.532 88.7551 23.2222 88.8806 23.7905C89.0152 24.3498 89.2031 24.8099 89.4451 25.1707C89.6872 25.5226 89.9834 25.7796 90.3321 25.942C90.6816 26.0954 91.0714 26.172 91.5022 26.172Z" fill="#30424F"/>
<path opacity="0.6" d="M106.711 14.521C107.58 14.521 108.378 14.6609 109.104 14.9405C109.838 15.2201 110.47 15.6306 110.998 16.1718C111.528 16.7041 111.939 17.3627 112.235 18.1475C112.531 18.9233 112.679 19.8119 112.679 20.8132C112.679 21.0658 112.666 21.2778 112.639 21.4492C112.621 21.6116 112.58 21.7424 112.517 21.8417C112.464 21.9319 112.387 21.9996 112.289 22.0447C112.191 22.0808 112.065 22.0988 111.912 22.0988H103.391C103.49 23.5241 103.871 24.5706 104.534 25.2382C105.197 25.9057 106.075 26.2395 107.168 26.2395C107.706 26.2395 108.168 26.1763 108.552 26.05C108.947 25.9237 109.288 25.7839 109.574 25.6305C109.87 25.4772 110.125 25.3374 110.34 25.2111C110.564 25.0847 110.779 25.0216 110.985 25.0216C111.12 25.0216 111.236 25.0486 111.335 25.1028C111.433 25.1569 111.519 25.2336 111.59 25.3328L112.558 26.5507C112.191 26.9838 111.779 27.3491 111.322 27.6468C110.865 27.9355 110.385 28.17 109.883 28.3504C109.39 28.5218 108.884 28.6436 108.365 28.7158C107.853 28.7879 107.356 28.824 106.873 28.824C105.914 28.824 105.023 28.6662 104.198 28.3504C103.373 28.0257 102.657 27.552 102.047 26.9296C101.438 26.2981 100.959 25.5223 100.609 24.6021C100.259 23.673 100.086 22.5995 100.086 21.3816C100.086 20.4344 100.237 19.5458 100.542 18.7159C100.847 17.8769 101.281 17.1507 101.846 16.5372C102.419 15.9148 103.114 15.4231 103.929 15.0622C104.753 14.7014 105.681 14.521 106.711 14.521ZM106.778 16.9162C105.811 16.9162 105.054 17.1912 104.507 17.7416C103.961 18.2918 103.611 19.0722 103.459 20.0825H109.695C109.695 19.6495 109.637 19.2436 109.521 18.8647C109.404 18.4768 109.224 18.1385 108.982 17.8498C108.741 17.5612 108.436 17.3356 108.069 17.1732C107.702 17.0018 107.272 16.9162 106.778 16.9162Z" fill="#30424F"/>
<path opacity="0.6" d="M124.538 28.6213C124.108 28.6213 123.825 28.4183 123.692 28.0124L123.423 26.6727C123.135 26.9975 122.836 27.2906 122.522 27.5523C122.208 27.8139 121.868 28.0394 121.501 28.2289C121.142 28.4183 120.753 28.5626 120.331 28.6619C119.919 28.7702 119.471 28.8243 118.987 28.8243C118.234 28.8243 117.544 28.6664 116.918 28.3507C116.29 28.0349 115.748 27.5794 115.291 26.984C114.843 26.3795 114.494 25.6353 114.243 24.7512C114.001 23.8672 113.88 22.8568 113.88 21.7201C113.88 20.6917 114.019 19.7355 114.297 18.8514C114.574 17.9673 114.973 17.2005 115.492 16.551C116.013 15.9015 116.635 15.3963 117.361 15.0355C118.087 14.6655 118.902 14.4807 119.807 14.4807C120.578 14.4807 121.236 14.607 121.783 14.8595C122.33 15.1031 122.818 15.4324 123.248 15.8473V8.51318H126.568V28.6213H124.538ZM120.116 26.172C120.806 26.172 121.393 26.0277 121.877 25.739C122.361 25.4504 122.818 25.0399 123.248 24.5076V18.2831C122.871 17.823 122.459 17.4982 122.011 17.3088C121.572 17.1194 121.097 17.0246 120.587 17.0246C120.085 17.0246 119.628 17.1194 119.216 17.3088C118.812 17.4982 118.467 17.7869 118.181 18.1748C117.903 18.5537 117.688 19.0408 117.535 19.6362C117.384 20.2226 117.307 20.9172 117.307 21.7201C117.307 22.532 117.37 23.2222 117.495 23.7905C117.63 24.3498 117.818 24.8099 118.06 25.1707C118.302 25.5226 118.597 25.7796 118.947 25.942C119.296 26.0954 119.686 26.172 120.116 26.172Z" fill="#30424F"/>
<path opacity="0.6" fill-rule="evenodd" clip-rule="evenodd" d="M6.34948 6.80867C6.9486 4.74413 9.09666 3.55948 11.1473 4.16267L24.0699 7.96392C26.1205 8.56713 27.2972 10.7297 26.6981 12.7943L20.9116 32.7337C20.3125 34.7983 18.1645 35.983 16.1138 35.3798L3.19121 31.5785C1.1406 30.9753 -0.0360539 28.8127 0.563076 26.7481L6.34948 6.80867ZM10.3127 7.03819C9.83955 6.89899 9.34388 7.17237 9.20562 7.64877L3.41919 27.5883C3.28093 28.0647 3.55247 28.5638 4.02568 28.703L16.9483 32.5042C17.4216 32.6434 17.9172 32.3701 18.0555 31.8936L23.8419 11.9542C23.9802 11.4777 23.7087 10.9786 23.2354 10.8394L10.3127 7.03819Z" fill="#30424F"/>
<path opacity="0.6" fill-rule="evenodd" clip-rule="evenodd" d="M14.4224 3.3028C15.0215 1.23827 17.1695 0.053611 19.2201 0.656811L32.1428 4.45808C34.1934 5.06127 35.3701 7.22389 34.771 9.28845L28.9846 29.2279C28.3854 31.2924 26.2374 32.4771 24.1868 31.8739L11.2641 28.0726C9.2135 27.4695 8.03688 25.3068 8.63602 23.2423L14.4224 3.3028ZM18.3857 3.53233C17.9125 3.39313 17.4167 3.66651 17.2785 4.14294L11.4921 24.0824C11.3539 24.5588 11.6254 25.0579 12.0986 25.1972L25.0212 28.9984C25.4944 29.1376 25.9902 28.8642 26.1285 28.3878L31.9149 8.44832C32.0531 7.97184 31.7815 7.4728 31.3083 7.3336L18.3857 3.53233Z" fill="#30424F"/>
</g>
</svg>
