<svg width="132" height="38" viewBox="0 0 132 38" fill="none" xmlns="http://www.w3.org/2000/svg">
<g opacity="0.6">
<path opacity="0.6" d="M34.2569 28.5621V9.68799H46.7145V12.4652H37.7461V17.642H45.8968V20.3384H37.7461V25.7849H46.7145V28.5621H34.2569Z" fill="#30424F"/>
<path opacity="0.6" d="M48.8139 28.5625V15.1888H51.8942L52.1941 16.9954C52.6302 16.3482 53.2027 15.8359 53.9115 15.4584C54.6384 15.063 55.4743 14.8652 56.4193 14.8652C58.5092 14.8652 59.9904 15.6651 60.8627 17.265C61.3533 16.5279 62.0075 15.9438 62.8253 15.5124C63.6613 15.0809 64.57 14.8652 65.5513 14.8652C67.3141 14.8652 68.668 15.3865 69.613 16.4291C70.558 17.4717 71.0305 18.9996 71.0305 21.0128V28.5625H67.5412V21.3364C67.5412 20.186 67.3141 19.3052 66.8598 18.694C66.4236 18.0828 65.7421 17.7772 64.8153 17.7772C63.8703 17.7772 63.1071 18.1188 62.5255 18.8019C61.9621 19.4849 61.6804 20.4376 61.6804 21.6599V28.5625H58.1912V21.3364C58.1912 20.186 57.964 19.3052 57.5097 18.694C57.0554 18.0828 56.3558 17.7772 55.4107 17.7772C54.4839 17.7772 53.7297 18.1188 53.1482 18.8019C52.5848 19.4849 52.3031 20.4376 52.3031 21.6599V28.5625H48.8139Z" fill="#30424F"/>
<path opacity="0.6" d="M79.4892 28.8861C78.1262 28.8861 76.9177 28.5985 75.8637 28.0233C74.8096 27.448 73.9828 26.6392 73.383 25.5966C72.7833 24.554 72.4834 23.3496 72.4834 21.9835C72.4834 20.5994 72.7742 19.3681 73.3557 18.2896C73.9555 17.2111 74.7733 16.3752 75.8091 15.782C76.8632 15.1708 78.0989 14.8652 79.5165 14.8652C80.8432 14.8652 82.0155 15.1529 83.0333 15.728C84.051 16.3033 84.841 17.0942 85.4042 18.1008C85.9862 19.0894 86.2772 20.195 86.2772 21.4173C86.2772 21.615 86.2673 21.8218 86.2493 22.0374C86.2493 22.2531 86.2402 22.4779 86.2221 22.7115H75.9454C76.0182 23.7541 76.3816 24.5719 77.0358 25.1651C77.7082 25.7583 78.5169 26.0549 79.462 26.0549C80.1707 26.0549 80.761 25.9022 81.2337 25.5966C81.7245 25.273 82.0879 24.8596 82.3238 24.3562H85.8678C85.6138 25.2011 85.1863 25.9741 84.587 26.6751C84.005 27.3582 83.2782 27.8974 82.406 28.2929C81.5519 28.6883 80.5793 28.8861 79.4892 28.8861ZM79.5165 17.6694C78.6623 17.6694 77.9081 17.912 77.2539 18.3974C76.5997 18.8648 76.1817 19.5838 76 20.5545H82.7332C82.6789 19.6737 82.3518 18.9727 81.7516 18.4514C81.1523 17.9301 80.4067 17.6694 79.5165 17.6694Z" fill="#30424F"/>
<path opacity="0.6" d="M87.7882 28.5625V15.1888H91.1982L91.2229 17.6964C91.7137 16.8336 92.3763 16.1505 93.2123 15.6472C94.0665 15.1259 95.0661 14.8652 96.2113 14.8652V18.5052H95.2297C94.4668 18.5052 93.7853 18.6221 93.1852 18.8558C92.5859 19.0894 92.1132 19.4939 91.7679 20.0691C91.4407 20.6444 91.2771 21.4442 91.2771 22.4689V28.5625H87.7882Z" fill="#30424F"/>
<path opacity="0.6" d="M102.137 28.8861C100.974 28.8861 100.019 28.7063 99.2744 28.3468C98.5296 27.9693 97.9747 27.475 97.6113 26.8638C97.248 26.2527 97.0663 25.5786 97.0663 24.8416C97.0663 23.6013 97.5571 22.5946 98.5386 21.8218C99.5194 21.0488 100.992 20.6623 102.955 20.6623H106.39V20.3387C106.39 19.422 106.126 18.7479 105.599 18.3166C105.072 17.8851 104.417 17.6694 103.636 17.6694C102.927 17.6694 102.31 17.8402 101.783 18.1818C101.256 18.5052 100.928 18.9906 100.801 19.6378H97.3935C97.4847 18.6671 97.8111 17.8222 98.375 17.1032C98.9563 16.3842 99.7019 15.8359 100.61 15.4584C101.519 15.063 102.536 14.8652 103.664 14.8652C105.59 14.8652 107.107 15.3416 108.215 16.2943C109.324 17.247 109.878 18.5952 109.878 20.3387V28.5625H106.907L106.58 26.4054C106.18 27.1245 105.617 27.7176 104.89 28.185C104.181 28.6524 103.263 28.8861 102.137 28.8861ZM102.927 26.1898C103.927 26.1898 104.699 25.8662 105.244 25.2191C105.808 24.572 106.162 23.772 106.307 22.8194H103.336C102.409 22.8194 101.746 22.9901 101.346 23.3317C100.947 23.6553 100.747 24.0597 100.747 24.545C100.747 25.0663 100.947 25.4707 101.346 25.7583C101.746 26.046 102.273 26.1898 102.927 26.1898Z" fill="#30424F"/>
<path opacity="0.6" d="M112.087 28.5624V12.6443C112.087 10.7139 113.649 9.14893 115.576 9.14893V28.5624H112.087Z" fill="#30424F"/>
<path opacity="0.6" d="M123.934 28.886C122.661 28.886 121.526 28.5803 120.526 27.9692C119.526 27.3581 118.736 26.5222 118.154 25.4616C117.573 24.4011 117.282 23.1968 117.282 21.8486C117.282 20.5005 117.573 19.3051 118.154 18.2625C118.736 17.202 119.526 16.3751 120.526 15.7819C121.526 15.1707 122.661 14.8651 123.934 14.8651C124.951 14.8651 125.842 15.0539 126.605 15.4314C127.368 15.8089 127.987 16.3392 128.458 17.0222V12.6443C128.458 10.7139 130.021 9.14893 131.948 9.14893V28.5624H128.841L128.458 26.648C128.023 27.2412 127.441 27.7625 126.714 28.2119C126.005 28.6613 125.079 28.886 123.934 28.886ZM124.669 25.8661C125.797 25.8661 126.714 25.4976 127.423 24.7606C128.149 24.0056 128.514 23.0439 128.514 21.8756C128.514 20.7072 128.149 19.7544 127.423 19.0174C126.714 18.2625 125.797 17.885 124.669 17.885C123.561 17.885 122.643 18.2535 121.916 18.9905C121.19 19.7275 120.826 20.6801 120.826 21.8486C120.826 23.017 121.19 23.9787 121.916 24.7336C122.643 25.4886 123.561 25.8661 124.669 25.8661Z" fill="#30424F"/>
<path opacity="0.6" d="M19.1158 0.930167L19.0629 0.708193L16.127 0.148926L0.367188 22.9508L9.54692 36.5655L11.8406 37.0024L25.3681 27.7133L19.1158 0.930167ZM22.8756 26.3203L18.6459 27.0684L18.4449 6.21742L22.8756 26.3203ZM6.6831 27.0969L9.52415 33.4534L3.74187 24.9827L6.6831 27.0969ZM8.7786 25.589L16.7065 5.10931L16.5771 27.0745L8.7786 25.589ZM15.5696 29.0016L11.2631 33.7847L9.00977 27.752L15.5696 29.0016ZM21.8337 28.4291L13.1029 34.1351L18.1315 29.2777L21.8337 28.4291ZM14.6833 5.50087L6.86075 24.7999L3.2233 22.5531L14.6833 5.50087Z" fill="#30424F"/>
<path opacity="0.6" fill-rule="evenodd" clip-rule="evenodd" d="M16.1086 0.105469L19.0945 0.674272L19.1533 0.921002L25.4118 27.7304L11.8486 37.0442L9.52284 36.6011L0.318909 22.9504L16.1086 0.105469ZM16.1441 0.192343L0.414081 22.951L9.56962 36.5299L11.8312 36.9606L25.3231 27.696L19.077 0.939292L19.0299 0.742073L16.1441 0.192343ZM8.83163 25.5591L16.5374 27.0271L16.6652 5.32286L8.83163 25.5591ZM16.6692 5.09507L16.745 5.10953L16.6154 27.122L8.72427 25.6188L16.6692 5.09507ZM18.4049 6.21779L18.4826 6.20892L22.9222 26.3519L18.6064 27.1152L18.4049 6.21779ZM18.4871 6.59464L18.6841 27.0216L22.8278 26.2886L18.4871 6.59464ZM3.27803 22.5411L6.8412 24.7419L14.5038 5.83734L3.27803 22.5411ZM14.65 5.47887L14.719 5.51565L6.87901 24.8578L3.16719 22.565L14.65 5.47887ZM18.1501 29.3136L13.4276 33.8755L21.6272 28.5166L18.1501 29.3136ZM21.8242 28.3907L21.8545 28.462L13.1237 34.1681L13.075 34.1068L18.1113 29.2418L21.8242 28.3907ZM3.70876 25.0049L3.76408 24.9507L6.71394 27.071L9.55934 33.4373L9.49103 33.4756L3.70876 25.0049ZM3.89953 25.1449L9.30853 33.0688L6.65089 27.1226L3.89953 25.1449ZM8.94779 27.7002L15.6448 28.976L11.2483 33.8591L8.94779 27.7002ZM9.07028 27.8037L11.2766 33.7102L15.493 29.0272L9.07028 27.8037Z" fill="#30424F"/>
</g>
</svg>
