<svg width="152" height="28" viewBox="0 0 152 28" fill="none" xmlns="http://www.w3.org/2000/svg">
<g opacity="0.6">
<path opacity="0.6" d="M49.4891 21.5617C47.5189 21.5617 45.7926 21.1251 44.3103 20.2519C42.8466 19.3787 41.6927 18.1733 40.8483 16.6357C40.0227 15.0792 39.6099 13.2853 39.6099 11.2542C39.6099 9.22313 40.0227 7.43879 40.8483 5.90116C41.6927 4.3446 42.8466 3.12975 44.3103 2.25656C45.7926 1.38338 47.5189 0.946777 49.4891 0.946777C51.4406 0.946777 53.1574 1.38338 54.6399 2.25656C56.1222 3.12975 57.2762 4.3446 58.1018 5.90116C58.9274 7.43879 59.3402 9.22313 59.3402 11.2542C59.3402 13.2853 58.9274 15.0792 58.1018 16.6357C57.2762 18.1733 56.1222 19.3787 54.6399 20.2519C53.1574 21.1251 51.4406 21.5617 49.4891 21.5617ZM49.4891 18.2872C51.3655 18.2872 52.8573 17.6608 53.9643 16.4079C55.0901 15.1551 55.6531 13.4372 55.6531 11.2542C55.6531 9.07125 55.0901 7.35334 53.9643 6.10047C52.8573 4.84768 51.3655 4.2212 49.4891 4.2212C47.6127 4.2212 46.1116 4.84768 44.9858 6.10047C43.8599 7.35334 43.297 9.07125 43.297 11.2542C43.297 13.4372 43.8599 15.1551 44.9858 16.4079C46.1116 17.6608 47.6127 18.2872 49.4891 18.2872Z" fill="#30424F"/>
<path opacity="0.6" d="M62.4367 27.4841V7.09701H65.6454L66.0395 9.1186C66.4898 8.49221 67.0808 7.94172 67.8126 7.46722C68.5632 6.99262 69.5295 6.75537 70.7116 6.75537C72.0252 6.75537 73.1979 7.07808 74.2299 7.7234C75.262 8.36881 76.0782 9.25156 76.6786 10.3715C77.2791 11.4915 77.5793 12.7633 77.5793 14.187C77.5793 15.6107 77.2791 16.8825 76.6786 18.0024C76.0782 19.1034 75.262 19.9766 74.2299 20.622C73.1979 21.2484 72.0252 21.5616 70.7116 21.5616C69.6609 21.5616 68.7414 21.3623 67.9534 20.9637C67.1653 20.565 66.5273 20.005 66.0395 19.2837V27.4841H62.4367ZM69.9517 18.3726C71.0963 18.3726 72.0439 17.9834 72.7945 17.2052C73.545 16.4269 73.9203 15.4208 73.9203 14.187C73.9203 12.9531 73.545 11.9375 72.7945 11.1403C72.0439 10.343 71.0963 9.94439 69.9517 9.94439C68.7884 9.94439 67.8314 10.343 67.0808 11.1403C66.3491 11.9186 65.9832 12.9246 65.9832 14.1585C65.9832 15.3923 66.3491 16.4079 67.0808 17.2052C67.8314 17.9834 68.7884 18.3726 69.9517 18.3726Z" fill="#30424F"/>
<path opacity="0.6" d="M86.4679 21.22C85.0046 21.22 83.8318 20.8592 82.9499 20.1379C82.068 19.4166 81.627 18.1353 81.627 16.294V10.1437H79.2346V7.09703H81.627L82.0492 3.31006H85.2297V7.09703H89.0016V10.1437H85.2297V16.3225C85.2297 17.0059 85.3704 17.4804 85.6519 17.7461C85.9521 17.9929 86.4592 18.1163 87.1717 18.1163H88.9168V21.22H86.4679Z" fill="#30424F"/>
<path opacity="0.6" d="M94.0366 4.90441C93.38 4.90441 92.8353 4.70502 92.4043 4.30641C91.9916 3.90781 91.7844 3.40476 91.7844 2.79732C91.7844 2.18989 91.9916 1.69634 92.4043 1.31669C92.8353 0.918061 93.38 0.71875 94.0366 0.71875C94.6932 0.71875 95.2282 0.918061 95.6409 1.31669C96.0728 1.69634 96.2879 2.18989 96.2879 2.79732C96.2879 3.40476 96.0728 3.90781 95.6409 4.30641C95.2282 4.70502 94.6932 4.90441 94.0366 4.90441ZM92.2356 21.2198V7.09682H95.8376V21.2198H92.2356Z" fill="#30424F"/>
<path opacity="0.6" d="M99.5979 21.22V7.09701H102.779L103.088 9.00475C103.538 8.32139 104.129 7.78037 104.861 7.38176C105.612 6.96414 106.475 6.75537 107.451 6.75537C109.608 6.75537 111.138 7.60008 112.039 9.28951C112.545 8.51123 113.221 7.8943 114.066 7.43873C114.928 6.98316 115.867 6.75537 116.88 6.75537C118.7 6.75537 120.098 7.30586 121.074 8.40685C122.05 9.50774 122.537 11.1213 122.537 13.2473V21.22H118.934V13.589C118.934 12.3741 118.7 11.444 118.231 10.7986C117.78 10.1532 117.077 9.83045 116.12 9.83045C115.144 9.83045 114.356 10.1912 113.755 10.9125C113.174 11.6338 112.883 12.6399 112.883 13.9307V21.22H109.281V13.589C109.281 12.3741 109.045 11.444 108.577 10.7986C108.107 10.1532 107.385 9.83045 106.409 9.83045C105.453 9.83045 104.674 10.1912 104.073 10.9125C103.492 11.6338 103.201 12.6399 103.201 13.9307V21.22H99.5979Z" fill="#30424F"/>
<path opacity="0.6" d="M132.741 21.5616C131.334 21.5616 130.086 21.2579 128.998 20.6505C127.909 20.043 127.055 19.1888 126.436 18.0878C125.817 16.9868 125.507 15.715 125.507 14.2723C125.507 12.8107 125.807 11.5104 126.408 10.3715C127.027 9.23254 127.872 8.34988 128.941 7.7234C130.029 7.07808 131.306 6.75537 132.769 6.75537C134.138 6.75537 135.349 7.05906 136.4 7.66652C137.45 8.27389 138.267 9.10914 138.848 10.1722C139.449 11.2162 139.75 12.3836 139.75 13.6744C139.75 13.8832 139.74 14.1015 139.721 14.3293C139.721 14.5571 139.712 14.7943 139.693 15.0411H129.082C129.157 16.1421 129.532 17.0059 130.208 17.6323C130.902 18.2586 131.737 18.5719 132.712 18.5719C133.444 18.5719 134.054 18.4105 134.542 18.0878C135.049 17.7461 135.424 17.3096 135.668 16.7781H139.327C139.064 17.6702 138.623 18.4864 138.004 19.2268C137.404 19.9481 136.653 20.5176 135.752 20.9352C134.87 21.3528 133.866 21.5616 132.741 21.5616ZM132.769 9.7166C131.887 9.7166 131.108 9.97287 130.433 10.4854C129.757 10.9789 129.325 11.7382 129.138 12.7633H136.09C136.034 11.8331 135.696 11.0928 135.077 10.5423C134.458 9.9918 133.688 9.7166 132.769 9.7166Z" fill="#30424F"/>
<path opacity="0.6" d="M142.779 21.22V7.09701H145.988L146.326 9.74508C146.832 8.83394 147.518 8.11254 148.38 7.58107C149.263 7.03057 150.294 6.75537 151.476 6.75537V10.5993H150.463C149.675 10.5993 148.972 10.7227 148.353 10.9695C147.733 11.2162 147.245 11.6433 146.889 12.2507C146.551 12.8582 146.382 13.7029 146.382 14.7849V21.22H142.779Z" fill="#30424F"/>
<path opacity="0.6" d="M29.3337 3.1595L10.4503 22.5102C10.3287 22.6349 10.1163 22.5478 10.1185 22.3742L10.2405 12.8714C10.2414 12.8012 10.2809 12.737 10.3434 12.7042L29.1048 2.8564C29.2993 2.75437 29.4868 3.00271 29.3337 3.1595Z" fill="#414347" fill-opacity="0.8"/>
<path opacity="0.6" d="M30.2425 1.61084L29.9931 1.96179L8.54894 13.3377L0.719708 8.24129C0.537034 8.11684 0.586755 7.83243 0.808439 7.79188L30.2425 1.61084Z" fill="#30424F"/>
<path opacity="0.6" fill-rule="evenodd" clip-rule="evenodd" d="M30.5647 1.39979C30.6521 1.5316 30.6493 1.70311 30.5575 1.83202L30.3081 2.18297C30.2733 2.23181 30.2276 2.27191 30.1745 2.30008L8.73047 13.676C8.60588 13.7421 8.4549 13.7353 8.33678 13.6584L0.507543 8.56203C0.505269 8.56055 0.503023 8.55907 0.500784 8.55751C0.0625923 8.25903 0.144968 7.52765 0.732182 7.41554L30.1622 1.23537C30.3176 1.20272 30.4774 1.26796 30.5647 1.39979ZM1.20714 8.10003L8.56864 12.892L28.3436 2.40153L1.20714 8.10003Z" fill="#30424F"/>
<path opacity="0.6" fill-rule="evenodd" clip-rule="evenodd" d="M30.6072 1.73592C30.6699 1.55634 30.5908 1.35824 30.4212 1.27022C30.2516 1.18219 30.0426 1.23079 29.93 1.38446L29.7328 1.65361L8.25532 13.2673C8.10774 13.347 8.02905 13.5124 8.06061 13.6762L9.72202 22.3063C9.75437 22.4743 9.8946 22.6007 10.066 22.6164C10.2374 22.632 10.3985 22.5332 10.4611 22.3739L13.0113 15.8904L30.268 2.51971C30.3267 2.4742 30.3709 2.41281 30.3953 2.3429L30.6072 1.73592Z" fill="url(#paint0_linear_1_259)"/>
<path opacity="0.6" d="M30.242 1.61035L23.7881 22.1212C23.7381 22.2732 23.5504 22.3408 23.4125 22.2564L15.0194 17.0982L13.2365 15.9057L29.7102 2.30465C29.9153 2.13542 30.0827 1.92588 30.2022 1.68923L30.242 1.61035Z" fill="#30424F"/>
<path opacity="0.6" fill-rule="evenodd" clip-rule="evenodd" d="M30.3871 1.25455C30.5736 1.32939 30.6711 1.53397 30.6111 1.72473L24.1572 22.2355L24.1557 22.2402C24.0273 22.631 23.5584 22.7961 23.2103 22.5829L14.8167 17.4243C14.8125 17.4217 14.8083 17.419 14.8042 17.4163L13.0212 16.2238C12.9203 16.1563 12.8574 16.0456 12.8513 15.9249C12.8451 15.8043 12.8965 15.6877 12.9901 15.6105L29.4638 2.00954C29.6278 1.87416 29.7618 1.70653 29.8573 1.51721L29.8972 1.43833C29.9874 1.25967 30.2005 1.1797 30.3871 1.25455ZM29.3752 3.08048L13.8803 15.8733L15.2295 16.7757L23.4719 21.8414L29.3752 3.08048Z" fill="#30424F"/>
</g>
<defs>
<linearGradient id="paint0_linear_1_259" x1="23.5455" y1="-2.01971" x2="10.951" y2="25.967" gradientUnits="userSpaceOnUse">
<stop offset="0.0001" stop-color="#464951"/>
<stop offset="1" stop-color="#767982"/>
</linearGradient>
</defs>
</svg>
